<svg xmlns="http://www.w3.org/2000/svg" xmlns:xlink="http://www.w3.org/1999/xlink"><defs/><symbol id="facebook" viewBox="-337 273 123.5 256">
<g id="SVGRepo_bgCarrier" stroke-width="0"/>
<g id="SVGRepo_tracerCarrier" stroke-linecap="round" stroke-linejoin="round"/>
<g id="SVGRepo_iconCarrier"> <path d="M-260.9,327.8c0-10.3,9.2-14,19.5-14c10.3,0,21.3,3.2,21.3,3.2l6.6-39.2c0,0-14-4.8-47.4-4.8c-20.5,0-32.4,7.8-41.1,19.3 c-8.2,10.9-8.5,28.4-8.5,39.7v25.7H-337V396h26.5v133h49.6V396h39.3l2.9-38.3h-42.2V327.8z"/> </g>
</symbol><symbol id="instagram" viewBox="0 0 24 24">
<g id="SVGRepo_bgCarrier" stroke-width="0"/>
<g id="SVGRepo_tracerCarrier" stroke-linecap="round" stroke-linejoin="round"/>
<g id="SVGRepo_iconCarrier"> <path fill-rule="evenodd" clip-rule="evenodd" d="M12 18C15.3137 18 18 15.3137 18 12C18 8.68629 15.3137 6 12 6C8.68629 6 6 8.68629 6 12C6 15.3137 8.68629 18 12 18ZM12 16C14.2091 16 16 14.2091 16 12C16 9.79086 14.2091 8 12 8C9.79086 8 8 9.79086 8 12C8 14.2091 9.79086 16 12 16Z"/> <path d="M18 5C17.4477 5 17 5.44772 17 6C17 6.55228 17.4477 7 18 7C18.5523 7 19 6.55228 19 6C19 5.44772 18.5523 5 18 5Z"/> <path fill-rule="evenodd" clip-rule="evenodd" d="M1.65396 4.27606C1 5.55953 1 7.23969 1 10.6V13.4C1 16.7603 1 18.4405 1.65396 19.7239C2.2292 20.8529 3.14708 21.7708 4.27606 22.346C5.55953 23 7.23969 23 10.6 23H13.4C16.7603 23 18.4405 23 19.7239 22.346C20.8529 21.7708 21.7708 20.8529 22.346 19.7239C23 18.4405 23 16.7603 23 13.4V10.6C23 7.23969 23 5.55953 22.346 4.27606C21.7708 3.14708 20.8529 2.2292 19.7239 1.65396C18.4405 1 16.7603 1 13.4 1H10.6C7.23969 1 5.55953 1 4.27606 1.65396C3.14708 2.2292 2.2292 3.14708 1.65396 4.27606ZM13.4 3H10.6C8.88684 3 7.72225 3.00156 6.82208 3.0751C5.94524 3.14674 5.49684 3.27659 5.18404 3.43597C4.43139 3.81947 3.81947 4.43139 3.43597 5.18404C3.27659 5.49684 3.14674 5.94524 3.0751 6.82208C3.00156 7.72225 3 8.88684 3 10.6V13.4C3 15.1132 3.00156 16.2777 3.0751 17.1779C3.14674 18.0548 3.27659 18.5032 3.43597 18.816C3.81947 19.5686 4.43139 20.1805 5.18404 20.564C5.49684 20.7234 5.94524 20.8533 6.82208 20.9249C7.72225 20.9984 8.88684 21 10.6 21H13.4C15.1132 21 16.2777 20.9984 17.1779 20.9249C18.0548 20.8533 18.5032 20.7234 18.816 20.564C19.5686 20.1805 20.1805 19.5686 20.564 18.816C20.7234 18.5032 20.8533 18.0548 20.9249 17.1779C20.9984 16.2777 21 15.1132 21 13.4V10.6C21 8.88684 20.9984 7.72225 20.9249 6.82208C20.8533 5.94524 20.7234 5.49684 20.564 5.18404C20.1805 4.43139 19.5686 3.81947 18.816 3.43597C18.5032 3.27659 18.0548 3.14674 17.1779 3.0751C16.2777 3.00156 15.1132 3 13.4 3Z"/> </g>
</symbol><symbol id="like" viewBox="0 0 21 18">
<path d="M14.625 8.2786e-06C13.7519 -0.00149138 12.8905 0.200775 12.1093 0.590718C11.328 0.980661 10.6486 1.54752 10.125 2.24621C9.41584 1.30266 8.42792 0.606001 7.30103 0.254824C6.17415 -0.0963541 4.96536 -0.0842713 3.84572 0.289363C2.72607 0.662997 1.75228 1.37926 1.06212 2.3368C0.371965 3.29434 0.0003989 4.44467 0 5.62501C0 12.3621 9.36008 17.6813 9.75851 17.9044C9.87048 17.9671 9.99667 18 10.125 18C10.2533 18 10.3795 17.9671 10.4915 17.9044C12.213 16.8961 13.8287 15.7173 15.3142 14.3856C18.5893 11.438 20.25 8.49047 20.25 5.62501C20.2483 4.13368 19.6551 2.70393 18.6006 1.6494C17.5461 0.594873 16.1163 0.00169855 14.625 8.2786e-06Z"/>
</symbol><symbol id="notification" viewBox="0 0 34 34">
<path d="M21.0472 24.1991C23.7312 23.8807 26.3193 23.2497 28.7741 22.3435C26.7386 20.0841 25.4997 17.093 25.4997 13.8125V12.8197C25.4999 12.7965 25.5 12.7732 25.5 12.75C25.5 8.05558 21.6944 4.25 17 4.25C12.3056 4.25 8.5 8.05558 8.5 12.75L8.49972 13.8125C8.49972 17.093 7.2608 20.0841 5.22534 22.3435C7.68032 23.2498 10.2686 23.8808 12.9528 24.1992M21.0472 24.1991C19.72 24.3565 18.3693 24.4375 16.9997 24.4375C15.6303 24.4375 14.2798 24.3565 12.9528 24.1992M21.0472 24.1991C21.1789 24.6091 21.25 25.0462 21.25 25.5C21.25 27.8472 19.3472 29.75 17 29.75C14.6528 29.75 12.75 27.8472 12.75 25.5C12.75 25.0463 12.8211 24.6091 12.9528 24.1992" stroke-width="2" stroke-linecap="round" stroke-linejoin="round"/>
</symbol><symbol id="play" viewBox="0 0 20 20">
<path d="M9.75 0C7.82164 0 5.93657 0.571828 4.33319 1.64317C2.72982 2.71451 1.48013 4.23726 0.742179 6.01884C0.00422452 7.80042 -0.188858 9.76082 0.187348 11.6521C0.563554 13.5434 1.49215 15.2807 2.85571 16.6443C4.21928 18.0079 5.95656 18.9365 7.84787 19.3127C9.73919 19.6889 11.6996 19.4958 13.4812 18.7578C15.2627 18.0199 16.7855 16.7702 17.8568 15.1668C18.9282 13.5634 19.5 11.6784 19.5 9.75C19.497 7.16506 18.4688 4.68684 16.641 2.85901C14.8132 1.03118 12.3349 0.00298763 9.75 0ZM13.166 10.374L8.66602 13.374C8.5531 13.4495 8.42181 13.4928 8.28617 13.4994C8.15054 13.506 8.01565 13.4757 7.89592 13.4116C7.77619 13.3475 7.67612 13.2521 7.60639 13.1356C7.53665 13.0191 7.49988 12.8858 7.5 12.75V6.75C7.49988 6.6142 7.53665 6.48092 7.60639 6.3644C7.67612 6.24787 7.77619 6.15248 7.89592 6.0884C8.01565 6.02433 8.15054 5.99398 8.28617 6.0006C8.42181 6.00721 8.5531 6.05055 8.66602 6.12598L13.166 9.12598C13.2688 9.19446 13.353 9.28725 13.4113 9.39611C13.4695 9.50497 13.5 9.62653 13.5 9.75C13.5 9.87347 13.4695 9.99503 13.4113 10.1039C13.353 10.2127 13.2688 10.3055 13.166 10.374Z"/>
</symbol><symbol id="print" viewBox="0 0 24 24"><g id="SVGRepo_bgCarrier" stroke-width="0"/><g id="SVGRepo_tracerCarrier" stroke-linecap="round" stroke-linejoin="round"/><g id="SVGRepo_iconCarrier"> <path d="M18 16H21C21.5523 16 22 15.5523 22 15V9C22 8.44772 21.5523 8 21 8H3C2.44772 8 2 8.44772 2 9V15C2 15.5523 2.44772 16 3 16H6" stroke-width="2" stroke-linecap="round" stroke-linejoin="round"/> <path d="M6 12H18V20C18 20.5523 17.5523 21 17 21H7C6.44772 21 6 20.5523 6 20V12Z" stroke-width="2" stroke-linecap="round" stroke-linejoin="round"/> <path d="M6 4C6 3.44772 6.44772 3 7 3H17C17.5523 3 18 3.44772 18 4V8H6V4Z" stroke-width="2" stroke-linecap="round" stroke-linejoin="round"/> </g></symbol><symbol id="search" viewBox="0 0 34 34">
<path d="M29.75 29.75L22.388 22.388M22.388 22.388C24.3108 20.4653 25.5 17.809 25.5 14.875C25.5 9.00697 20.743 4.25 14.875 4.25C9.00697 4.25 4.25 9.00697 4.25 14.875C4.25 20.743 9.00697 25.5 14.875 25.5C17.809 25.5 20.4653 24.3108 22.388 22.388Z" stroke-width="2" stroke-linecap="round" stroke-linejoin="round"/>
</symbol><symbol id="share" viewBox="0 0 24 24"><g id="SVGRepo_bgCarrier" stroke-width="0"/><g id="SVGRepo_tracerCarrier" stroke-linecap="round" stroke-linejoin="round"/><g id="SVGRepo_iconCarrier"> <path d="M5 12V17C5 18.6569 6.34315 20 8 20H16C17.6569 20 19 18.6569 19 17V12M12 16V4M12 4L8 8M12 4L16 8" stroke-width="2" stroke-linecap="round" stroke-linejoin="round"/> </g></symbol><symbol id="timer" viewBox="0 0 24 24">
<path d="M9.75 1.5H14.25C14.4489 1.5 14.6397 1.42098 14.7803 1.28033C14.921 1.13968 15 0.948912 15 0.75C15 0.551088 14.921 0.360322 14.7803 0.21967C14.6397 0.0790176 14.4489 0 14.25 0L9.75 0C9.55109 0 9.36032 0.0790176 9.21967 0.21967C9.07902 0.360322 9 0.551088 9 0.75C9 0.948912 9.07902 1.13968 9.21967 1.28033C9.36032 1.42098 9.55109 1.5 9.75 1.5Z"/>
<path d="M12 3C10.22 3 8.47991 3.52784 6.99987 4.51677C5.51983 5.50571 4.36628 6.91131 3.68509 8.55585C3.0039 10.2004 2.82567 12.01 3.17294 13.7558C3.5202 15.5016 4.37737 17.1053 5.63604 18.364C6.89472 19.6226 8.49836 20.4798 10.2442 20.8271C11.99 21.1743 13.7996 20.9961 15.4442 20.3149C17.0887 19.6337 18.4943 18.4802 19.4832 17.0001C20.4722 15.5201 21 13.78 21 12C20.9973 9.61388 20.0482 7.32626 18.361 5.63902C16.6737 3.95178 14.3861 3.0027 12 3ZM16.2426 8.81799L12.5304 12.5303C12.4607 12.6 12.378 12.6552 12.2871 12.6929C12.1961 12.7306 12.0985 12.75 12 12.75C11.9015 12.75 11.804 12.7306 11.713 12.6929C11.622 12.6553 11.5393 12.6 11.4697 12.5304C11.4 12.4607 11.3448 12.378 11.3071 12.2871C11.2694 12.1961 11.25 12.0985 11.25 12C11.25 11.9015 11.2694 11.804 11.3071 11.713C11.3448 11.622 11.4 11.5393 11.4696 11.4697L15.182 7.75736C15.2516 7.68771 15.3343 7.63246 15.4253 7.59477C15.5163 7.55708 15.6138 7.53767 15.7123 7.53767C15.8108 7.53767 15.9083 7.55707 15.9993 7.59476C16.0903 7.63244 16.173 7.68769 16.2426 7.75733C16.3123 7.82697 16.3675 7.90965 16.4052 8.00065C16.4429 8.09164 16.4623 8.18916 16.4623 8.28766C16.4623 8.38615 16.4429 8.48368 16.4052 8.57467C16.3675 8.66567 16.3123 8.74835 16.2427 8.81799H16.2426Z"/>
</symbol><symbol id="twitter" viewBox="0 0 24 24">
<g id="SVGRepo_bgCarrier" stroke-width="0"/>
<g id="SVGRepo_tracerCarrier" stroke-linecap="round" stroke-linejoin="round"/>
<g id="SVGRepo_iconCarrier"> <path d="M19.83 8.00001C19.83 8.17001 19.83 8.35001 19.83 8.52001C19.8393 10.0302 19.5487 11.5272 18.9751 12.9242C18.4014 14.3212 17.5562 15.5904 16.4883 16.6583C15.4204 17.7262 14.1512 18.5714 12.7542 19.1451C11.3572 19.7187 9.86017 20.0093 8.34999 20C6.15213 20.0064 3.9992 19.3779 2.14999 18.19C2.47999 18.19 2.78999 18.19 3.14999 18.19C4.96345 18.19 6.72433 17.5808 8.14999 16.46C7.30493 16.4524 6.48397 16.1774 5.80489 15.6744C5.12581 15.1714 4.62349 14.4662 4.36999 13.66C4.62464 13.7006 4.88213 13.7207 5.13999 13.72C5.49714 13.7174 5.85281 13.6738 6.19999 13.59C5.2965 13.4056 4.48448 12.9147 3.90135 12.2003C3.31822 11.486 2.99981 10.5921 2.99999 9.67001C3.55908 9.97841 4.18206 10.153 4.81999 10.18C4.25711 9.80767 3.79593 9.30089 3.47815 8.7055C3.16038 8.11011 2.99604 7.44489 2.99999 6.77001C3.00124 6.06749 3.18749 5.37769 3.53999 4.77001C4.55172 6.01766 5.81423 7.03889 7.24575 7.76757C8.67727 8.49625 10.2459 8.91613 11.85 9.00001C11.7865 8.69737 11.753 8.38922 11.75 8.08001C11.7239 7.25689 11.9526 6.44578 12.4047 5.75746C12.8569 5.06913 13.5104 4.53714 14.2762 4.23411C15.0419 3.93109 15.8826 3.87181 16.6833 4.06437C17.484 4.25693 18.2057 4.69195 18.75 5.31001C19.655 5.12822 20.5214 4.78981 21.31 4.31001C21.0088 5.24317 20.3754 6.0332 19.53 6.53001C20.3337 6.44316 21.1194 6.23408 21.86 5.91001C21.3116 6.71097 20.6361 7.41694 19.86 8.00001H19.83Z"/> </g>
</symbol><symbol id="utensils" viewBox="0 0 24 24">
<path d="M11.9989 7.47893C11.9985 7.46538 11.998 7.45183 11.9969 7.43819C11.9957 7.42451 11.994 7.41101 11.9922 7.39754C11.9912 7.39059 11.9909 7.38367 11.9898 7.37667L11.2398 2.87667C11.2237 2.77947 11.1885 2.6864 11.1364 2.60278C11.0843 2.51916 11.0162 2.44663 10.936 2.38934C10.8559 2.33205 10.7652 2.29111 10.6692 2.26887C10.5732 2.24663 10.4738 2.24352 10.3766 2.25972C10.2794 2.27592 10.1864 2.31112 10.1028 2.36329C10.0192 2.41547 9.9467 2.4836 9.88946 2.5638C9.83222 2.644 9.79134 2.73469 9.76916 2.8307C9.74699 2.9267 9.74394 3.02613 9.76021 3.12331L10.3646 6.74999H8.625V2.99999C8.625 2.80108 8.54598 2.61031 8.40533 2.46966C8.26468 2.32901 8.07391 2.24999 7.875 2.24999C7.67609 2.24999 7.48532 2.32901 7.34467 2.46966C7.20402 2.61031 7.125 2.80108 7.125 2.99999V6.74999H5.38536L5.98979 3.12331C6.00606 3.02613 6.00301 2.9267 5.98083 2.8307C5.95866 2.73469 5.91778 2.644 5.86053 2.5638C5.80329 2.4836 5.73081 2.41547 5.64722 2.36329C5.56364 2.31112 5.47059 2.27592 5.3734 2.25972C5.27621 2.24352 5.17678 2.24663 5.08079 2.26887C4.9848 2.29111 4.89413 2.33205 4.81397 2.38934C4.73381 2.44663 4.66572 2.51916 4.6136 2.60278C4.56148 2.6864 4.52635 2.77947 4.51021 2.87667L3.76021 7.37667C3.75906 7.38367 3.75879 7.39059 3.75778 7.39754C3.75595 7.411 3.75426 7.42451 3.75311 7.43819C3.75197 7.45183 3.75146 7.46538 3.75105 7.47893C3.75087 7.48598 3.75 7.4929 3.75 7.49999C3.75 7.50667 3.75046 7.51322 3.7505 7.51986C3.75064 7.52448 3.75064 7.52906 3.75087 7.53364C3.75993 8.4912 4.1014 9.41586 4.71687 10.1495C5.33235 10.8831 6.18359 11.3801 7.125 11.5554V21C7.125 21.1989 7.20402 21.3897 7.34467 21.5303C7.48532 21.671 7.67609 21.75 7.875 21.75C8.07391 21.75 8.26468 21.671 8.40533 21.5303C8.54598 21.3897 8.625 21.1989 8.625 21V11.5554C9.56641 11.3801 10.4177 10.8831 11.0331 10.1495C11.6486 9.41586 11.9901 8.49119 11.9991 7.53364C11.9994 7.52906 11.9994 7.52448 11.9995 7.51986C11.9995 7.51322 12 7.50667 12 7.49999C12 7.4929 11.9991 7.48598 11.9989 7.47893Z"/>
<path d="M19.8743 2.98673C19.874 2.97126 19.8732 2.95578 19.8719 2.94026C19.8711 2.92973 19.8702 2.9193 19.8689 2.90891C19.8673 2.89595 19.8653 2.883 19.863 2.87004C19.8607 2.85699 19.8582 2.84409 19.8552 2.83131C19.8529 2.82115 19.8502 2.81104 19.8474 2.80092C19.8432 2.78586 19.8388 2.77103 19.8337 2.75638C19.8323 2.75217 19.8313 2.74791 19.8298 2.7437C19.8281 2.73917 19.826 2.73495 19.8242 2.73047C19.8186 2.71577 19.8125 2.70134 19.8059 2.68716C19.8017 2.67791 19.7973 2.66879 19.7927 2.65979C19.7866 2.64771 19.7801 2.63582 19.7732 2.62413C19.7672 2.61365 19.761 2.60335 19.7545 2.59323C19.7483 2.58371 19.7419 2.57446 19.7353 2.56522C19.7274 2.55405 19.7193 2.54311 19.7108 2.53249C19.7046 2.52466 19.6981 2.51711 19.6916 2.50955C19.6822 2.49875 19.6727 2.48808 19.6627 2.47787C19.6558 2.47073 19.6486 2.46387 19.6413 2.457C19.6313 2.44748 19.6213 2.43814 19.6108 2.42921C19.6024 2.42203 19.5936 2.41525 19.5849 2.40843C19.5751 2.40083 19.5652 2.39328 19.5551 2.38614C19.5447 2.37886 19.534 2.37204 19.5232 2.36531C19.5141 2.35959 19.505 2.35382 19.4956 2.34851C19.4834 2.34155 19.4709 2.33514 19.4583 2.32887C19.4496 2.32457 19.441 2.32027 19.4322 2.31628C19.4189 2.31033 19.4054 2.30493 19.3917 2.29971C19.3826 2.29628 19.3736 2.29285 19.3644 2.28973C19.3513 2.28529 19.338 2.2814 19.3246 2.27769C19.3138 2.27472 19.3032 2.27193 19.2924 2.26941C19.2805 2.26671 19.2684 2.26437 19.2563 2.26222C19.2432 2.25984 19.23 2.25783 19.2167 2.25618C19.2065 2.25494 19.1962 2.25394 19.1859 2.25307C19.1706 2.25183 19.1551 2.25105 19.1396 2.25073C19.1347 2.25064 19.1299 2.25 19.125 2.25C19.1204 2.25 19.116 2.2506 19.1115 2.25069C19.0961 2.25096 19.0807 2.25179 19.0653 2.25302C19.0547 2.25385 19.0443 2.2548 19.0338 2.25609C19.0209 2.25769 19.008 2.2597 18.995 2.26199C18.982 2.26428 18.969 2.2668 18.9563 2.26978C18.9461 2.27211 18.936 2.27476 18.9259 2.27756C18.9108 2.28168 18.896 2.28621 18.8813 2.29129C18.8771 2.29271 18.8729 2.29362 18.8687 2.29513C18.8594 2.29852 18.8503 2.30255 18.8411 2.30598C18.8376 2.3074 18.8341 2.30864 18.8306 2.3101C16.8984 3.03625 15.3511 5.4066 14.2315 9.35806C13.7236 11.1814 13.3551 13.0408 13.1293 14.9201C13.1181 15.0247 13.129 15.1305 13.1614 15.2306C13.1937 15.3308 13.2468 15.423 13.3171 15.5012C13.3875 15.5795 13.4735 15.6421 13.5696 15.685C13.6657 15.7278 13.7697 15.75 13.875 15.75H18.375V21C18.375 21.1989 18.454 21.3897 18.5946 21.5303C18.7353 21.671 18.9261 21.75 19.125 21.75C19.3239 21.75 19.5146 21.671 19.6553 21.5303C19.7959 21.3897 19.875 21.1989 19.875 21V3C19.875 2.99551 19.8744 2.99121 19.8743 2.98673Z"/>
</symbol></svg>