<svg width="20" height="20" viewBox="0 0 20 20" fill="none" xmlns="http://www.w3.org/2000/svg">
<path d="M9.75 0C7.82164 0 5.93657 0.571828 4.33319 1.64317C2.72982 2.71451 1.48013 4.23726 0.742179 6.01884C0.00422452 7.80042 -0.188858 9.76082 0.187348 11.6521C0.563554 13.5434 1.49215 15.2807 2.85571 16.6443C4.21928 18.0079 5.95656 18.9365 7.84787 19.3127C9.73919 19.6889 11.6996 19.4958 13.4812 18.7578C15.2627 18.0199 16.7855 16.7702 17.8568 15.1668C18.9282 13.5634 19.5 11.6784 19.5 9.75C19.497 7.16506 18.4688 4.68684 16.641 2.85901C14.8132 1.03118 12.3349 0.00298763 9.75 0ZM13.166 10.374L8.66602 13.374C8.5531 13.4495 8.42181 13.4928 8.28617 13.4994C8.15054 13.506 8.01565 13.4757 7.89592 13.4116C7.77619 13.3475 7.67612 13.2521 7.60639 13.1356C7.53665 13.0191 7.49988 12.8858 7.5 12.75V6.75C7.49988 6.6142 7.53665 6.48092 7.60639 6.3644C7.67612 6.24787 7.77619 6.15248 7.89592 6.0884C8.01565 6.02433 8.15054 5.99398 8.28617 6.0006C8.42181 6.00721 8.5531 6.05055 8.66602 6.12598L13.166 9.12598C13.2688 9.19446 13.353 9.28725 13.4113 9.39611C13.4695 9.50497 13.5 9.62653 13.5 9.75C13.5 9.87347 13.4695 9.99503 13.4113 10.1039C13.353 10.2127 13.2688 10.3055 13.166 10.374Z" fill="white"/>
</svg>
